<svg width="84" height="13" viewBox="0 0 84 13" fill="none" xmlns="http://www.w3.org/2000/svg">
<path d="M3.63068 12L0.301136 0.363636H2.98864L4.91477 8.44886H5.01136L7.13636 0.363636H9.4375L11.5568 8.46591H11.6591L13.5852 0.363636H16.2727L12.9432 12H10.5455L8.32955 4.39205H8.23864L6.02841 12H3.63068ZM27.6264 6.18182C27.6264 7.45076 27.3859 8.5303 26.9048 9.42045C26.4276 10.3106 25.776 10.9905 24.9503 11.4602C24.1283 11.9261 23.2041 12.1591 22.1776 12.1591C21.1435 12.1591 20.2154 11.9242 19.3935 11.4545C18.5715 10.9848 17.9219 10.3049 17.4446 9.41477C16.9673 8.52462 16.7287 7.44697 16.7287 6.18182C16.7287 4.91288 16.9673 3.83333 17.4446 2.94318C17.9219 2.05303 18.5715 1.375 19.3935 0.909091C20.2154 0.439394 21.1435 0.204545 22.1776 0.204545C23.2041 0.204545 24.1283 0.439394 24.9503 0.909091C25.776 1.375 26.4276 2.05303 26.9048 2.94318C27.3859 3.83333 27.6264 4.91288 27.6264 6.18182ZM25.1321 6.18182C25.1321 5.35985 25.009 4.66667 24.7628 4.10227C24.5204 3.53788 24.1776 3.10985 23.7344 2.81818C23.2912 2.52652 22.7723 2.38068 22.1776 2.38068C21.5829 2.38068 21.0639 2.52652 20.6207 2.81818C20.1776 3.10985 19.8329 3.53788 19.5866 4.10227C19.3442 4.66667 19.223 5.35985 19.223 6.18182C19.223 7.00379 19.3442 7.69697 19.5866 8.26136C19.8329 8.82576 20.1776 9.25379 20.6207 9.54545C21.0639 9.83712 21.5829 9.98295 22.1776 9.98295C22.7723 9.98295 23.2912 9.83712 23.7344 9.54545C24.1776 9.25379 24.5204 8.82576 24.7628 8.26136C25.009 7.69697 25.1321 7.00379 25.1321 6.18182ZM29.4489 12V0.363636H34.0398C34.9186 0.363636 35.6686 0.520833 36.2898 0.835227C36.9148 1.14583 37.3902 1.58712 37.7159 2.15909C38.0455 2.72727 38.2102 3.39583 38.2102 4.16477C38.2102 4.9375 38.0436 5.60227 37.7102 6.15909C37.3769 6.71212 36.8939 7.13636 36.2614 7.43182C35.6326 7.72727 34.8712 7.875 33.9773 7.875H30.9034V5.89773H33.5795C34.0492 5.89773 34.4394 5.83333 34.75 5.70455C35.0606 5.57576 35.2917 5.38258 35.4432 5.125C35.5985 4.86742 35.6761 4.54735 35.6761 4.16477C35.6761 3.77841 35.5985 3.45265 35.4432 3.1875C35.2917 2.92235 35.0587 2.72159 34.7443 2.58523C34.4337 2.44508 34.0417 2.375 33.5682 2.375H31.9091V12H29.4489ZM35.733 6.70455L38.625 12H35.9091L33.0795 6.70455H35.733ZM39.9489 12V0.363636H42.4091V5.49432H42.5625L46.75 0.363636H49.6989L45.3807 5.57386L49.75 12H46.8068L43.6193 7.21591L42.4091 8.69318V12H39.9489ZM61.017 6.18182C61.017 7.45076 60.7765 8.5303 60.2955 9.42045C59.8182 10.3106 59.1667 10.9905 58.3409 11.4602C57.5189 11.9261 56.5947 12.1591 55.5682 12.1591C54.5341 12.1591 53.6061 11.9242 52.7841 11.4545C51.9621 10.9848 51.3125 10.3049 50.8352 9.41477C50.358 8.52462 50.1193 7.44697 50.1193 6.18182C50.1193 4.91288 50.358 3.83333 50.8352 2.94318C51.3125 2.05303 51.9621 1.375 52.7841 0.909091C53.6061 0.439394 54.5341 0.204545 55.5682 0.204545C56.5947 0.204545 57.5189 0.439394 58.3409 0.909091C59.1667 1.375 59.8182 2.05303 60.2955 2.94318C60.7765 3.83333 61.017 4.91288 61.017 6.18182ZM58.5227 6.18182C58.5227 5.35985 58.3996 4.66667 58.1534 4.10227C57.911 3.53788 57.5682 3.10985 57.125 2.81818C56.6818 2.52652 56.1629 2.38068 55.5682 2.38068C54.9735 2.38068 54.4545 2.52652 54.0114 2.81818C53.5682 3.10985 53.2235 3.53788 52.9773 4.10227C52.7348 4.66667 52.6136 5.35985 52.6136 6.18182C52.6136 7.00379 52.7348 7.69697 52.9773 8.26136C53.2235 8.82576 53.5682 9.25379 54.0114 9.54545C54.4545 9.83712 54.9735 9.98295 55.5682 9.98295C56.1629 9.98295 56.6818 9.83712 57.125 9.54545C57.5682 9.25379 57.911 8.82576 58.1534 8.26136C58.3996 7.69697 58.5227 7.00379 58.5227 6.18182ZM70.027 0.363636H72.4872V7.92045C72.4872 8.76894 72.2846 9.51136 71.8793 10.1477C71.4777 10.7841 70.9152 11.2803 70.1918 11.6364C69.4683 11.9886 68.6255 12.1648 67.6634 12.1648C66.6974 12.1648 65.8527 11.9886 65.1293 11.6364C64.4058 11.2803 63.8433 10.7841 63.4418 10.1477C63.0402 9.51136 62.8395 8.76894 62.8395 7.92045V0.363636H65.2997V7.71023C65.2997 8.15341 65.3963 8.54735 65.5895 8.89205C65.7865 9.23674 66.063 9.50758 66.419 9.70455C66.7751 9.90152 67.1899 10 67.6634 10C68.1406 10 68.5554 9.90152 68.9077 9.70455C69.2637 9.50758 69.5384 9.23674 69.7315 8.89205C69.9285 8.54735 70.027 8.15341 70.027 7.71023V0.363636ZM74.0682 2.39205V0.363636H83.625V2.39205H80.0625V12H77.6307V2.39205H74.0682Z" fill="#FAFAF9"/>
</svg>
